<?xml version="1.0" encoding="UTF-8"?>
<svg xmlns="http://www.w3.org/2000/svg" viewBox="0 0 615.36 490.43">
  <defs>
    <style>
      .cls-1 {
        fill: #dd7936;
      }

      .cls-1, .cls-2, .cls-3, .cls-4, .cls-5, .cls-6 {
        stroke-miterlimit: 10;
      }

      .cls-1, .cls-2, .cls-3, .cls-5, .cls-6 {
        stroke: #000;
      }

      .cls-2 {
        fill: #bc9cc9;
      }

      .cls-3 {
        fill: #8e5ea4;
      }

      .cls-4 {
        fill: #fff;
        stroke: #1d1d1b;
      }

      .cls-5 {
        fill: #48ac35;
      }

      .cls-6 {
        fill: #4bb9a9;
      }
    </style>
  </defs>
  <g id="Lag_16" data-name="Lag 16">
    <rect class="cls-6" x="1" y=".5" width="48.84" height="48.84"/>
    <rect class="cls-1" x="57.98" y=".84" width="48.84" height="48.84"/>
    <rect class="cls-2" x=".5" y="55.57" width="48.84" height="48.84"/>
    <rect class="cls-3" x="58.28" y="55.57" width="48.84" height="48.84"/>
    <rect class="cls-5" x="1.42" y="112.74" width="48.84" height="48.84"/>
  </g>
  <g id="Lag_15" data-name="Lag 15">
    <path class="cls-6" d="M584.08,386.24c-9.27,5.16-21.34,9.78-31.18,5.2-9.95-4.64-10.21-15.23-22.32-37.61-10.41-19.23-19.28-35.61-30.27-35.46-10.8.15-21.6,16.23-23.24,30.27-1.22,10.42,3.51,12.04,3.97,28.13.3,10.29.65,22.15-7.34,30.88-1.09,1.19-9.68,10.3-21.1,8.56-10.19-1.55-18.78-11.16-20.48-23.85,15.67,3.74,21.76.96,24.46-2.14,8.52-9.77-10.14-30.18-2.75-58.7,2.72-10.51,7.7-17.14,8.87-18.65.59-.76,14.97-18.79,37.61-19.87,29.35-1.4,55.82,26.5,57.78,49.22.66,7.63-1.68,11.99,1.22,20.18,4.36,12.31,15.71,19.59,24.76,23.85Z"/>
    <g id="Lag_8" data-name="Lag 8">
      <path class="cls-3" d="M196.25,433.88c-.51-3.52,3.93-6.46,6.65-8.94,7.81-7.13,14.15-22.16,8.25-56.64l32.33-2.06c-6.75,25.09-2.56,38.94,2.75,47.01,4.05,6.16,9.05,9.38,8.25,14.68-1.34,8.91-17.64,14-28.66,14.9-12.82,1.05-28.67-2.71-29.58-8.94Z"/>
      <path class="cls-3" d="M499.03,412.3c-.51-3.52,3.93-6.46,6.65-8.94,7.81-7.13,14.15-22.16,8.25-56.64l32.33-2.06c-6.75,25.09-2.56,38.94,2.75,47.01,4.05,6.16,9.05,9.38,8.25,14.68-1.34,8.91-17.64,14-28.66,14.9-12.82,1.05-28.67-2.71-29.58-8.94Z"/>
    </g>
    <g id="Lag_6" data-name="Lag 6">
      <path class="cls-2" d="M175.99,359.35c9.25,4.15,27.47,10.84,51.13,9.86,21.72-.9,38.16-7.85,47.01-12.38-.15-5.66-.31-11.31-.46-16.97-12.38,4.38-31.74,9.5-55.72,8.94-17.24-.4-31.64-3.63-42.19-6.88.08,5.81.15,11.62.23,17.43Z"/>
      <path class="cls-2" d="M477.26,340.42c9.25,4.15,27.47,10.84,51.13,9.86,21.72-.9,38.16-7.85,47.01-12.38-.15-5.66-.31-11.31-.46-16.97-12.38,4.38-31.74,9.5-55.72,8.94-17.24-.4-31.64-3.63-42.19-6.88.08,5.81.15,11.62.23,17.43Z"/>
    </g>
    <g id="Lag_7" data-name="Lag 7">
      <path class="cls-2" d="M177.15,341.36c.14-6.1,24.58-10.49,39.34-11.72,26.26-2.18,58.1,2.63,58.53,9.66.4,6.64-27.2,15.74-52.72,15.41-21.5-.28-45.3-7.29-45.15-13.35Z"/>
      <path class="cls-2" d="M477.28,322.01c.14-6.1,24.58-10.49,39.34-11.72,26.26-2.18,58.1,2.63,58.53,9.66.4,6.64-27.2,15.74-52.72,15.41-21.5-.28-45.3-7.29-45.15-13.35Z"/>
    </g>
    <g id="Lag_14" data-name="Lag 14">
      <path class="cls-1" d="M352.97,444.37c-4.07,14.07-67.89,4.28-87.36-10.32-4.16-3.12-5.57-5.91-5.96-8.25-1.42-8.38,9.12-16.42,12.38-19.26,9.36-8.14,19.03-25.81,18.57-68.33-4.36,1-15.92,4.26-25.68,14.9-7.56,8.24-4.03,18.64-12.15,24.08-5.01,3.35-12.51,4.27-14.9,1.38-3.71-4.48,4.73-18.13,12.15-26.14,1.66-1.79,5.51-5.72,11.92-9.86,9.42-6.08,21.63-13.96,35.31-11.24,18.3,3.64,26.43,23.7,27.29,25.91,9.66,24.87-8.08,47.93-9.17,49.3,7.66,3.69,20.48,11.2,31.18,25.45,4.81,6.41,7.22,9.62,6.42,12.38Z"/>
      <path class="cls-3" d="M332.14,438.02c-.97-6.67,7.45-12.25,12.6-16.95,14.8-13.52,26.81-42,15.64-107.33,20.42-1.3,40.85-2.61,61.27-3.91-12.8,47.54-4.86,73.79,5.21,89.08,7.68,11.66,17.15,17.79,15.64,27.81-2.53,16.89-33.43,26.53-54.32,28.25-24.29,2-54.34-5.13-56.06-16.95Z"/>
    </g>
    <g id="Lag_13" data-name="Lag 13">
      <path class="cls-1" d="M360.58,483.76c-7.71,12.9-52.68,5.09-78.88-18.8-6.12-5.58-15.84-14.44-14.68-24.76,1.47-12.97,18.57-14.43,33.94-33.02,8.57-10.37,22.48-33.16,15.13-47.24-8.9-17.06-47.11-17.6-67.87-17.89-15.11-.21-20.33,1.49-28.43-2.75-15.04-7.88-24.45-28.1-22.47-45.86.99-8.93,7.85-18.95,21.55-38.98,7.93-11.59,11.85-16.14,20.18-27.52,6.85-9.35,16.54-23.14,27.52-40.82,6.42.08,12.84.15,19.26.23,2.45-4.74,4.89-9.48,7.34-14.22,10.09.15,20.18.31,30.27.46-.54,8.1-1.07,16.2-1.61,24.31,1.22.12,10.3,1.15,15.82,9.4,5.1,7.62,3.3,15.65,2.98,16.97-10.32,9.76-20.64,19.51-30.96,29.27-.61,1.71-1.22,3.42-1.83,5.12-8.25,13.45-16.51,26.9-24.76,40.36,34.93-4.04,65.61,7.96,76.13,30.04,7.02,14.73,3.42,30.5,1.38,39.44-7.29,31.93-30.46,50.23-38.75,56.18,6.51,6.15,47.53,45.37,38.75,60.08Z"/>
      <path class="cls-1" d="M322.09,188.42c4.39,1.27,11.62,4.04,18.19,10.39,2.73,2.65,4.22,4.08,5.2,6.27,5.28,11.79-10.27,31.75-25.22,42.19-5.2,3.63-13.9,8.61-26.45,11.16,5.4-12.23,10.8-24.46,16.2-36.69"/>
    </g>
    <g id="Lag_9" data-name="Lag 9">
      <path class="cls-6" d="M493.43,311.91c-3.28,4.52-7.32,11.37-9.17,20.29-5,24.13,11.28,38.49,3.67,51.36-6.83,11.55-23.16,5.63-27.86,16.85-4.42,10.55,5.37,26.86,16.97,34.97,5.02,3.51,9.98,5.2,13.53,6.08-3.2-6.76-6.33-16.37-2.64-24.88,3.85-8.88,11.59-8.41,18-16.85,9.31-12.27,1.73-24.79,5.04-42.99,1.89-10.35,7.63-24.35,24.99-39.44,27.47,11.59,35.31,23.64,36.8,33.13,2.54,16.22-13.57,24.36-10.55,42.88,2.61,16,18.27,32.08,32.79,30.73,6.6-.62,14.94-5.02,18.34-13.3,3.14-7.65.53-14.84-.23-16.74-.54,1.36-4.44,10.85-13.76,13.07-2,.47-5.44,1.29-8.25-.46-6.17-3.84-4.42-16.99-2.29-24.31,2.53-8.69,5.92-10.24,10.09-18.8,5.1-10.45,6.71-21.8,6.19-28.2-1.38-17.14-20.72-32.93-46.32-40.82-10.93-25.76-21.86-51.52-32.79-77.27,11.94-10.43,15.82-27.38,9.63-41.73-5.92-13.74-19.94-22.46-35.08-21.78,12.47-15.78,15.34-36.42,7.11-52.74-9.27-18.36-28.52-23.13-32.33-24.08-25.33-6.28-44.83,9.32-46.32,10.55-19.73,16.34-19.15,40.18-19.03,42.88h70.62l-13.53,28.43c-14.52,3.67-29.04,7.34-43.57,11.01,1.24,2.03,3.65,5.4,7.8,8.25,3.66,2.53,7.18,3.62,9.4,4.13-2.21.29-12.72,1.9-18.57,10.78-3.63,5.5-4.98,13.04-3.44,19.49,1.36,5.7,4.55,8.78,4.13,15.36-.19,2.86-.97,5.16-1.61,6.65,2.14.75,4.01.94,5.5.92,10.39-.14,16.89-10.84,17.66-12.15,1.15-6.88,2.29-13.76,3.44-20.64,7.51,10.09,15.45,22.37,22.7,36.92,13.73,27.56,19.96,53.17,22.93,72.46Z"/>
      <g id="Lag_4" data-name="Lag 4">
        <path class="cls-2" d="M486.68,296.83c-14.67,12.07-39.14,28.8-73.07,37.91-68.7,18.45-126.29-7.69-143.16-16.13-.59-12.97-1.17-25.94-1.76-38.9,10.94,7.43,65.27,42.7,134.98,28.36,43.2-8.89,71.64-32.58,84.15-44.48-.38,11.08-.76,22.17-1.15,33.25Z"/>
      </g>
      <g id="Lag_5" data-name="Lag 5">
        <path class="cls-2" d="M488.13,263.6c-1.9-21.25-75.24-38.23-138.27-26.06-31.99,6.18-81.08,23.68-80.1,41.43,1.1,20.02,65.8,38.72,123.21,31.34,43.65-5.61,96.83-28.08,95.16-46.7Z"/>
      </g>
      <path class="cls-5" d="M388.96,218.41c-.67-3.39-4.41-5.35-7.79-4.62-2.7.58-4.91,2.82-5.22,5.48.27,8.35.54,16.71.81,25.06.73,2.25,2.65,3.96,5.04,4.3,3.45.48,7.62-1.95,8.68-5.89-.51-8.11-1.02-16.22-1.53-24.33Z"/>
      <path class="cls-5" d="M377,219.03c-.47-3.43-4.09-5.6-7.52-5.06-2.73.43-5.06,2.53-5.52,5.18-.2,8.36-.41,16.71-.61,25.07.6,2.29,2.42,4.11,4.79,4.58,3.42.68,7.72-1.51,9-5.38-.05-8.13-.1-16.25-.14-24.38Z"/>
      <path class="cls-4" d="M340.88,260.04c.04,7.92,16.84,15.58,31.18,15.82,18.5.31,38.13-11.66,37.15-20.18-.93-8.02-20.2-13.29-35.08-12.38-14.8.91-33.29,8.42-33.25,16.74Z"/>
      <path class="cls-5" d="M352.95,254.48c.23,4.52,4.01,7.77,7.81,7.48,3.03-.23,5.75-2.7,6.48-6.08.92-10.85,1.85-21.7,2.77-32.55-.46-3.05-2.31-5.64-4.86-6.53-3.69-1.29-8.58,1.05-10.31,5.94-.63,10.58-1.26,21.17-1.89,31.75Z"/>
      <path class="cls-2" d="M371.09,223.5c1.29-3.66.98-6.24.46-7.91-1.1-3.53-3.45-4.01-4.82-8.37-.09-.29-1.71-5.6.24-6.91.66-.44,1.71-.42,2.29.08,1.01.88-.08,2.68.15,4.97.32,3.07,2.72,3.99,4.36,6.73,1.15,1.92,2.13,5.1.92,10.47"/>
      <path class="cls-5" d="M383.22,254.83c.9,4.43,5.13,7.08,8.84,6.23,2.96-.68,5.29-3.53,5.5-6.98-.7-10.87-1.41-21.73-2.11-32.6-.91-2.94-3.12-5.23-5.78-5.73-3.84-.73-8.32,2.32-9.31,7.41.96,10.56,1.91,21.12,2.87,31.68Z"/>
      <path class="cls-2" d="M386.6,237.17c.83-.79,2.08-2.12,3.15-4.02,2.11-3.72,1.29-5.73,3.47-9.01.17-.25,3.28-4.85,5.52-4.16.76.23,1.41,1.06,1.38,1.83-.04,1.34-2.13,1.62-3.76,3.25-2.1,2.09-.96,3.94-2.48,7.62-1.93,4.67-6.35,7.97-7.56,7.3-.42-.23-.68-1.06-.52-1.72.14-.58.59-.94.8-1.09Z"/>
      <path class="cls-5" d="M382.02,223.75c-.61-4.48-4.65-7.4-8.41-6.79-3,.49-5.5,3.17-5.94,6.61,0,10.89-.02,21.78-.02,32.67.72,3,2.78,5.42,5.39,6.1,3.78.97,8.46-1.77,9.77-6.78-.26-10.6-.53-21.2-.79-31.8Z"/>
    </g>
    <g id="Lag_10" data-name="Lag 10">
      <path class="cls-6" d="M507.68,153.98c20.77,2.57,36.71,14.31,39.13,28.43,2.41,13.99-9.13,26.38-15.59,33.32-3.42,3.67-15.01,16.26-34.55,21.4-22.12,5.82-34.14-3.15-40.05,3.97-8.25,9.95,13.6,29.38,6.42,46.47-8.06,19.2-50.55,30.23-64.51,12.84-10.97-13.66.75-38.73,1.53-40.36.39,3.23,1.26,7.89,3.36,13.15,2.55,6.37,4.74,11.93,9.48,14.68,7.95,4.6,22.97.88,27.21-7.64,6.41-12.88-15.82-28.64-8.87-46.78,1.97-5.15,5.4-8.16,7.95-10.39,18.77-16.48,43.42-1.95,58.39-15.59,3.57-3.25,7.76-9.17,8.87-20.79"/>
      <path class="cls-4" d="M357.67,238.84c-.37,4.35,3.25,7.98,7.25,8.18,4.71.24,8.72-4.34,8.04-8.79-.51-3.32-3.54-5.96-6.95-6.23-3.93-.31-7.97,2.57-8.34,6.84Z"/>
    </g>
    <g id="Lag_11" data-name="Lag 11">
      <path class="cls-1" d="M278.08,213.69c-2.27,14.65-3.86,34.39-1.53,57.48,2.27,22.45,7.54,41.03,12.54,54.73,10.77,2.58,18.02,6.95,22.32,10.09,4.51,3.29,8.67,6.42,8.25,10.39-.35,3.34-3.85,6.54-7.26,6.8-3.03.23-4.13-2-10.2-5.27-5.41-2.92-8.51-4.59-10.55-3.44-3.9,2.2-4,14.84,1.49,21.32.9,1.06,2.19,2.24,2.64,4.36.62,2.94-.57,6.78-3.55,8.83-4.02,2.76-8.85.6-9.63.23-5.76-2.72-7.31-9.89-8.03-13.18-1.88-8.69.83-14.63-.57-15.13-1.44-.51-6.03,5.1-7.91,12.27-2.28,8.7,1.16,13.08-2.06,16.74-2.94,3.33-9.81,4.25-12.73,1.49-3.96-3.74-.28-13.89,6.42-32.33,1.89-5.19,3.59-9.37,4.7-12.04-11.3-29.36-21.01-66.35-22.01-109.3-.19-8.18-.05-16.09.34-23.69,1.21-4.74,4.4-13.96,12.91-19.96,3.77-2.66,7.22-3.81,9.63-4.59,10.5-3.37,20.35-2.13,26.98-.46"/>
      <path class="cls-1" d="M265.55,125.61c-.07,3.04-.26,30.26,21.1,44.25,22.67,14.86,49.37,1.56,54.8-1.15,3.73-1.86,32.11-16.57,34.85-46.09.41-4.44,1.54-23.08-11.69-37.38-9.8-10.59-22.14-13.02-28.2-14.22-6.27-1.24-20.1-2.91-34.85,3.44-18.22,7.84-35.44,26.89-36,51.13Z"/>
    </g>
    <g id="Lag_12" data-name="Lag 12">
      <path class="cls-4" d="M414.38,130.37c4.46,5.99,8.92,11.97,13.38,17.96,3.49-5.68,6.98-11.36,10.47-17.04,3.31,5.78,6.62,11.57,9.94,17.35l9.48-17.27,4.13,16.74c4.56-5.94,9.12-11.87,13.68-17.81-20.36.03-40.71.05-61.07.08Z"/>
      <path class="cls-4" d="M409.35,107.76c.61,7.82,5.67,14.23,12.23,15.9,9.56,2.43,20.44-5.71,20.48-15.9.03-7.64-6.03-14.79-13.76-15.9-8.86-1.27-17.94,5.7-18.96,15.9Z"/>
      <path class="cls-4" d="M448.79,108.25c.61,7.82,5.67,14.23,12.23,15.9,9.56,2.43,20.44-5.71,20.48-15.9.03-7.64-6.03-14.79-13.76-15.9-8.86-1.27-17.94,5.7-18.96,15.9Z"/>
      <path class="cls-5" d="M419.25,106.27c-.12,1.41,1.4,2.72,2.9,2.6,1.36-.11,2.65-1.39,2.45-2.75-.18-1.24-1.52-2-2.68-1.99-1.24.01-2.57.91-2.68,2.14Z"/>
      <path class="cls-5" d="M457.15,107.03c-.12,1.41,1.4,2.72,2.9,2.6,1.36-.11,2.65-1.39,2.45-2.75-.18-1.24-1.52-2-2.68-1.99-1.24.01-2.57.91-2.68,2.14Z"/>
      <path class="cls-4" d="M427.72,167.94c2.28-4.96,4.57-9.92,6.85-14.88,3.23,3.35,6.46,6.71,9.7,10.06,3.09-3.61,6.17-7.22,9.26-10.82,2.68,2.36,5.37,4.72,8.05,7.08-11.29,2.85-22.57,5.71-33.86,8.56Z"/>
      <path class="cls-4" d="M296.91,117.03c.9,5.35,7.22,8.5,12.38,7.11,4.41-1.18,8.2-5.73,7.34-10.55-.94-5.23-6.91-8.23-11.92-7.11-4.67,1.05-8.61,5.71-7.8,10.55Z"/>
      <path class="cls-4" d="M334.95,111.74c.9,5.35,7.22,8.5,12.38,7.11,4.41-1.18,8.2-5.73,7.34-10.55-.94-5.23-6.91-8.23-11.92-7.11-4.67,1.05-8.61,5.71-7.8,10.55Z"/>
      <path class="cls-1" d="M345.52,137.89c-5.39-1.32-12.41-2.5-20.64-2.52-10.44-.02-19.09,1.84-25.22,3.67"/>
      <path class="cls-3" d="M362.29,237.53c-.08.95.95,1.83,1.98,1.75.93-.07,1.8-.94,1.67-1.85-.13-.84-1.03-1.34-1.82-1.34-.84,0-1.75.61-1.82,1.44Z"/>
    </g>
  </g>
</svg>